<svg xmlns="http://www.w3.org/2000/svg" viewBox="0 0 1162.01 837.06"><defs><style>.cls-1{fill:#eee;}.cls-2{fill:#fbb03b;}</style></defs><g id="Capa_2" data-name="Capa 2"><g id="Capa_1-2" data-name="Capa 1"><polygon class="cls-1" points="862.08 578.84 862.08 594.86 833.05 607.03 833.05 592.81 862.08 578.84"/><path class="cls-1" d="M194.16,823.86V789h21.6v5.4H201.21v9.15h11.1v5.4h-11.1v15Z"/><path class="cls-1" d="M244.31,796.16v4.9q2.81-5.29,8.1-5.3V803h-1.75a6.51,6.51,0,0,0-4.75,1.58c-1.06,1.05-1.6,2.86-1.6,5.42v13.9h-7.05v-27.7Z"/><path class="cls-1" d="M276.71,820.31a13.8,13.8,0,0,1-4-10.35,13.58,13.58,0,0,1,4.1-10.3,15.22,15.22,0,0,1,20.35,0,15,15,0,0,1,0,20.65,14.19,14.19,0,0,1-10.23,4A13.94,13.94,0,0,1,276.71,820.31Zm10.15-2a6.85,6.85,0,0,0,5.08-2.17,10,10,0,0,0,0-12.28,6.84,6.84,0,0,0-5.07-2.15,6.69,6.69,0,0,0-5,2.15,10.25,10.25,0,0,0,0,12.3A6.64,6.64,0,0,0,286.86,818.31Z"/><path class="cls-1" d="M331.09,796.16v4.15q2.66-4.54,8.6-4.55a10.24,10.24,0,0,1,7.75,3.13q3,3.12,3,8.67v16.3h-7v-15.3a6.92,6.92,0,0,0-1.65-5,5.94,5.94,0,0,0-4.5-1.73,6,6,0,0,0-4.52,1.73,6.84,6.84,0,0,0-1.68,5v15.3h-7v-27.7Z"/><path class="cls-1" d="M385.27,818h3.35v5.9h-4.45a9.83,9.83,0,0,1-6.55-2c-1.54-1.3-2.3-3.45-2.3-6.45V801.91h-2.95v-5.75h2.95v-6.85h7.05v6.85h6.2v5.75h-6.2v13.55a2.46,2.46,0,0,0,.65,1.93A3.42,3.42,0,0,0,385.27,818Z"/><path class="cls-1" d="M422.91,824.26a13.12,13.12,0,0,1-9.85-3.92,14.31,14.31,0,0,1-3.8-10.38q0-6.45,3.83-10.32a13.28,13.28,0,0,1,9.9-3.88,13.73,13.73,0,0,1,10,3.78,13.35,13.35,0,0,1,3.9,10.07,17.46,17.46,0,0,1-.2,2.7h-20.2a6.58,6.58,0,0,0,2,4.35,6.23,6.23,0,0,0,4.45,1.65,5.83,5.83,0,0,0,5.4-3h7.6a12.11,12.11,0,0,1-4.65,6.45A13.82,13.82,0,0,1,422.91,824.26Zm4.63-20.9a6.62,6.62,0,0,0-4.53-1.65,6.23,6.23,0,0,0-4.42,1.65,7,7,0,0,0-2.13,4.4h13.1A6,6,0,0,0,427.54,803.36Z"/><path class="cls-1" d="M461.78,820.24A14.56,14.56,0,0,1,458.06,810a14.39,14.39,0,0,1,3.7-10.22,12.28,12.28,0,0,1,9.4-4,9.71,9.71,0,0,1,8.7,4.7v-13.6h7v37h-7v-4.65a9.81,9.81,0,0,1-8.75,5A12.18,12.18,0,0,1,461.78,820.24ZM477.66,816a9.21,9.21,0,0,0,0-12,7.18,7.18,0,0,0-10.28,0,9.26,9.26,0,0,0,0,12,7,7,0,0,0,5.12,2.2A7.08,7.08,0,0,0,477.66,816Z"/><path class="cls-1" d="M557.21,789q8.4,0,13.57,4.8t5.18,12.7q0,7.9-5.18,12.65t-13.57,4.75H545.36V789Zm-4.8,29.55h4.8q5.49,0,8.55-3.25c2-2.16,3-5.1,3-8.8s-1-6.63-3-8.8-4.89-3.25-8.55-3.25h-4.8Z"/><path class="cls-1" d="M611,824.26a13.1,13.1,0,0,1-9.84-3.92q-3.81-3.93-3.8-10.38t3.82-10.32a13.28,13.28,0,0,1,9.9-3.88,13.75,13.75,0,0,1,10,3.78,13.35,13.35,0,0,1,3.9,10.07,16.26,16.26,0,0,1-.21,2.7H604.51a6.53,6.53,0,0,0,2,4.35,6.21,6.21,0,0,0,4.44,1.65,5.84,5.84,0,0,0,5.41-3H624a12,12,0,0,1-4.64,6.45A13.85,13.85,0,0,1,611,824.26Zm4.63-20.9a6.61,6.61,0,0,0-4.52-1.65,6.25,6.25,0,0,0-4.43,1.65,7,7,0,0,0-2.12,4.4h13.1A6,6,0,0,0,615.58,803.36Z"/><path class="cls-1" d="M643.45,796.16H651l7.15,21.65,7.1-21.65h7.5l-10.2,27.7h-8.84Z"/><path class="cls-1" d="M705,824.26a13.14,13.14,0,0,1-9.85-3.92A14.31,14.31,0,0,1,691.3,810q0-6.45,3.83-10.32a13.28,13.28,0,0,1,9.9-3.88,13.73,13.73,0,0,1,10,3.78,13.35,13.35,0,0,1,3.9,10.07,16.3,16.3,0,0,1-.2,2.7H698.5a6.63,6.63,0,0,0,2,4.35,6.23,6.23,0,0,0,4.45,1.65,5.81,5.81,0,0,0,5.4-3H718a12.11,12.11,0,0,1-4.65,6.45A13.82,13.82,0,0,1,705,824.26Zm4.63-20.9a6.62,6.62,0,0,0-4.53-1.65,6.24,6.24,0,0,0-4.42,1.65,7.05,7.05,0,0,0-2.13,4.4h13.1A6,6,0,0,0,709.58,803.36Z"/><path class="cls-1" d="M741.83,823.86v-37h7v37Z"/><path class="cls-1" d="M775.89,820.31a13.8,13.8,0,0,1-4-10.35,13.54,13.54,0,0,1,4.1-10.3,15.22,15.22,0,0,1,20.35,0,15,15,0,0,1,0,20.65,14.17,14.17,0,0,1-10.22,4A13.92,13.92,0,0,1,775.89,820.31Zm10.15-2a6.83,6.83,0,0,0,5.07-2.17,10,10,0,0,0,0-12.28,6.85,6.85,0,0,0-5.08-2.15,6.69,6.69,0,0,0-5,2.15,10.25,10.25,0,0,0,0,12.3A6.62,6.62,0,0,0,786,818.31Z"/><path class="cls-1" d="M830.27,800.46a9.58,9.58,0,0,1,8.65-4.7,12.29,12.29,0,0,1,9.4,4,16.08,16.08,0,0,1,0,20.52,12.16,12.16,0,0,1-9.33,4,9.7,9.7,0,0,1-8.72-5v17.85h-7v-40.9h7ZM842.69,816a8.14,8.14,0,0,0,2.18-6,8,8,0,0,0-2.18-6,7.15,7.15,0,0,0-10.25,0,9.31,9.31,0,0,0,0,12,7.1,7.1,0,0,0,10.25,0Z"/><path class="cls-1" d="M887,824.26a13.11,13.11,0,0,1-9.85-3.92q-3.81-3.93-3.8-10.38t3.82-10.32a13.28,13.28,0,0,1,9.9-3.88,13.75,13.75,0,0,1,10,3.78,13.35,13.35,0,0,1,3.9,10.07,17.46,17.46,0,0,1-.2,2.7h-20.2a6.53,6.53,0,0,0,2,4.35,6.22,6.22,0,0,0,4.45,1.65,5.83,5.83,0,0,0,5.4-3H900a12.11,12.11,0,0,1-4.65,6.45A13.84,13.84,0,0,1,887,824.26Zm4.62-20.9a6.61,6.61,0,0,0-4.52-1.65,6.27,6.27,0,0,0-4.43,1.65,7,7,0,0,0-2.12,4.4h13.1A6,6,0,0,0,891.61,803.36Z"/><path class="cls-1" d="M930.86,796.16v4.9q2.8-5.29,8.1-5.3V803h-1.75a6.51,6.51,0,0,0-4.75,1.58c-1.06,1.05-1.6,2.86-1.6,5.42v13.9h-7.05v-27.7Z"/><path class="cls-1" d="M844.59,249.75a250.62,250.62,0,0,1-2.39,34.66,249.8,249.8,0,0,1-247.36,215.1H451.67V249.7H567.06v71.44H523.11V427.87l72.94-.17c41.1,0,77.69-15.24,107.71-38.78a177,177,0,0,0,53.46-69.33,173.84,173.84,0,0,0,10.93-35.18s2.53-26.33,2.52-35.14c0-8.46-2.52-33.79-2.52-33.79a3.94,3.94,0,0,0-.07-.77A174.34,174.34,0,0,0,757,179.38a177.17,177.17,0,0,0-53.9-69.33c-29.9-23.22-67.46-38.59-108.24-38.59H451.67V0H594.84A249.55,249.55,0,0,1,844.59,249.75Z"/><path class="cls-1" d="M787.18,609.16a15.81,15.81,0,1,1,4.47-11A14.83,14.83,0,0,1,787.18,609.16Z"/><rect class="cls-1" x="763.14" y="617.76" width="26.35" height="88.24"/><path class="cls-1" d="M94.76,610.31q-16.65-15-42.53-14.95H40.51V615.3H52.23q15.1,0,23.73,9.2t8.63,24.69q0,15.49-8.63,24.7t-23.73,9.2H40.51V703H52.23q25.89,0,42.53-15t16.64-38.87Q111.4,625.27,94.76,610.31Z"/><path class="cls-1" d="M145.49,606.07a15.82,15.82,0,1,1,4.47-11A14.88,14.88,0,0,1,145.49,606.07Z"/><rect class="cls-1" x="121.45" y="614.67" width="26.35" height="88.24"/><path class="cls-1" d="M200.12,702.79q-18.8,0-30.82-12.1t-12-32.13q0-20,11.94-31.9t30.9-11.87q19,0,31.44,11.72T244,659a52.74,52.74,0,0,1-.62,8.32H184.25a15,15,0,0,0,14.41,12.95,21,21,0,0,0,7.47-1,13.36,13.36,0,0,0,3.62-2,25.87,25.87,0,0,0,3-3.31h28.51a37.79,37.79,0,0,1-14.8,20.88Q215.39,702.79,200.12,702.79Zm11.25-61.72a16.75,16.75,0,0,0-10.94-3.78,15.55,15.55,0,0,0-10.63,3.78,16.45,16.45,0,0,0-5.4,9.78h32.21A14,14,0,0,0,211.37,641.07Z"/><path class="cls-1" d="M841.58,705.88q-18.8,0-30.82-12.1t-12-32.13q0-20,11.94-31.9t30.9-11.86q19,0,31.44,11.71t12.48,32.51a53,53,0,0,1-.62,8.33H825.71a15,15,0,0,0,14.41,12.94,21,21,0,0,0,7.47-1,13.65,13.65,0,0,0,3.62-2,27.66,27.66,0,0,0,3-3.32h28.51a37.79,37.79,0,0,1-14.8,20.88Q856.85,705.89,841.58,705.88Zm11.25-61.72a16.75,16.75,0,0,0-10.94-3.78,15.55,15.55,0,0,0-10.63,3.78,16.44,16.44,0,0,0-5.4,9.79h32.21A14,14,0,0,0,852.83,644.16Z"/><path class="cls-1" d="M1049.16,705.88q-18.79,0-30.82-12.1t-12-32.13q0-20,11.94-31.9t30.9-11.86q19,0,31.44,11.71t12.48,32.51a53,53,0,0,1-.62,8.33h-59.17a15,15,0,0,0,14.41,12.94,21,21,0,0,0,7.47-1,13.65,13.65,0,0,0,3.62-2,27.66,27.66,0,0,0,3-3.32h28.51a37.79,37.79,0,0,1-14.8,20.88Q1064.42,705.89,1049.16,705.88Zm11.25-61.72a16.75,16.75,0,0,0-10.94-3.78,15.55,15.55,0,0,0-10.63,3.78,16.44,16.44,0,0,0-5.4,9.79h32.21A14,14,0,0,0,1060.41,644.16Z"/><path class="cls-1" d="M261.32,690.46q-11.41-12.33-11.41-31.59t11.41-31.67q11.4-12.41,27.81-12.41T314.33,627v-12.3h26.35v86.58q0,18-9.86,30a31.83,31.83,0,0,1-13.48,9.55,53.56,53.56,0,0,1-19.81,3.39q-19.72,0-31.28-8c-7.71-5.34-12.07-12.49-13.1-23.48H279c2.47,6.47,8.63,8.68,18.49,8.68a16.14,16.14,0,0,0,12-4.85q4.79-4.86,4.78-15.33v-12q-9.56,13.56-25.58,13.56T261.32,690.46Zm47.31-16q5.7-5.55,5.7-15.72t-5.7-15.64a18.33,18.33,0,0,0-26.2.08q-5.7,5.55-5.7,15.72t5.7,15.64a18.33,18.33,0,0,0,26.2-.08Z"/><path class="cls-1" d="M503,691.91q-16.11-15.63-16.11-39.68T503,612.55q16.1-15.64,39.37-15.64a55.59,55.59,0,0,1,32.06,9.55A49.87,49.87,0,0,1,594,633H562.53q-6.16-11.87-19.73-11.87t-21.34,8.48q-7.79,8.48-7.78,22.65t7.78,22.65q7.78,8.49,20.88,8.48,9.4,0,15.34-4.7a22.63,22.63,0,0,0,7.93-12.56H535.1v-20H594v20q-2.94,14.79-16.18,27.58a48.85,48.85,0,0,1-15.65,10,51.26,51.26,0,0,1-19.8,3.85Q519.08,707.55,503,691.91Z"/><path class="cls-1" d="M663.71,617.76h26.36v88.29H663.71V692.26q-8.16,13.77-26,13.77-14.79,0-24-10t-9.17-27.24v-51h26.2v47.42q0,8.46,4.39,13.07t12.09,4.62q7.71,0,12.1-4.62t4.39-13.07Z"/><path class="cls-1" d="M410,617.76h26.35v88.29H410V692.26Q401.84,706,384,706q-14.81,0-24-10t-9.17-27.24v-51H377v47.42q0,8.46,4.39,13.07t12.1,4.62q7.71,0,12.1-4.62T410,665.18Z"/><path class="cls-1" d="M742.51,684.28h9.4v21.58H738.5c-9.66,0-17.13-1.36-22.42-5.63s-7.94-11.58-7.94-22V642.52h-8V620.64h8V598.15h26.35v22.49h17.26v21.88H734.49v35.75Q734.49,684.29,742.51,684.28Z"/><path class="cls-1" d="M921.64,617.66V635q9.24-17.22,24.65-17.22v29.37h-6.47q-9.09,0-13.64,4.38t-4.54,15.34V706H895.28V617.66Z"/><path class="cls-1" d="M979.44,618v17q9.24-17.22,24.66-17.22v29.37h-6.47q-9.11,0-13.64,4.38t-4.55,15.34V706H953.09V618Z"/><path class="cls-1" d="M1162,617.89V640.1l-33,43.49h33V705.8h-64V683.59l33-43.49h-33V617.89Z"/><polygon class="cls-2" points="388.75 71.46 388.75 428.03 424.41 428.03 424.41 499.47 388.75 499.47 388.75 499.48 317.42 499.48 317.42 0.02 424.41 0.02 424.41 71.46 388.75 71.46"/><path class="cls-2" d="M23.87,619.61V683.1H40.51V703H0V595.36H40.51V615.3H23.87Z"/></g></g></svg>